<svg width="93" height="24" viewBox="0 0 93 24" fill="none" xmlns="http://www.w3.org/2000/svg">
<path d="M7.2522 0.20874L9.33915 2.19134C10.1218 2.92178 10.5392 3.91309 10.5392 5.00874C10.5392 6.05222 10.9565 7.04352 11.687 7.77396L11.9478 8.03483L14.3479 0.260909" fill="#4D35D3"/>
<path d="M0.156494 7.14784L3.02606 7.0435C4.06954 6.99132 5.11301 7.40872 5.84345 8.13915C6.57388 8.86959 7.56519 9.2348 8.60867 9.2348H8.97388L5.11302 2.08698" fill="#4D35D3"/>
<path d="M0.156523 17.0608L2.08696 14.9739C2.81739 14.1912 3.8087 13.7217 4.85218 13.7217C5.89565 13.7217 6.83478 13.2521 7.56522 12.5217L7.82609 12.2608L0 10.0173" fill="#4D35D3"/>
<path d="M7.25213 23.9478L7.09561 21.0782C7.04344 20.0348 7.40866 18.9913 8.13909 18.2087C8.81735 17.4782 9.23474 16.4348 9.18257 15.4435V15.0782L2.08691 19.0956" fill="#4D35D3"/>
<path d="M17.1653 23.7392L15.0262 21.8609C14.2436 21.1826 13.774 20.1913 13.7218 19.0957C13.6697 18.0522 13.2001 17.1131 12.4697 16.3826L12.2088 16.1218L10.1218 24" fill="#4D35D3"/>
<path d="M23.9479 16.4869L21.0783 16.6956C20.0348 16.7999 18.9913 16.4347 18.2087 15.7043C17.4261 15.026 16.4348 14.6608 15.3913 14.713H15.0261L19.2 21.7043" fill="#4D35D3"/>
<path d="M23.4783 6.6261L21.6522 8.81741C20.9739 9.60002 19.9826 10.1218 18.9391 10.1739C17.8957 10.2261 16.9565 10.6957 16.2783 11.4783L16.0696 11.7391L24 13.6174" fill="#4D35D3"/>
<path d="M16.1218 0L16.3826 2.86957C16.487 3.91304 16.1739 4.95652 15.4435 5.79131C14.7652 6.57392 14.4522 7.56522 14.5044 8.6087L14.5565 8.97391L21.4435 4.64348" fill="#4D35D3"/>
<path d="M30.7614 19V4.45455H39.5398V6.01705H32.5227V10.9318H39.0852V12.4943H32.5227V17.4375H39.6534V19H30.7614ZM43.7372 8.09091L46.3509 12.5511L48.9645 8.09091H50.8963L47.3736 13.5455L50.8963 19H48.9645L46.3509 14.767L43.7372 19H41.8054L45.2713 13.5455L41.8054 8.09091H43.7372ZM53.288 23.0909V8.09091H54.9073V9.82386H55.1062C55.2293 9.63447 55.3997 9.39299 55.6175 9.09943C55.8401 8.80114 56.1573 8.53598 56.5692 8.30398C56.9859 8.06723 57.5494 7.94886 58.2596 7.94886C59.1781 7.94886 59.9878 8.1785 60.6886 8.63778C61.3893 9.09706 61.9362 9.74811 62.3292 10.5909C62.7222 11.4337 62.9187 12.428 62.9187 13.5739C62.9187 14.7292 62.7222 15.7306 62.3292 16.5781C61.9362 17.4209 61.3917 18.0743 60.6957 18.5384C59.9996 18.9976 59.1971 19.2273 58.288 19.2273C57.5872 19.2273 57.0262 19.1113 56.6048 18.8793C56.1834 18.6425 55.859 18.375 55.6317 18.0767C55.4045 17.7737 55.2293 17.5227 55.1062 17.3239H54.9641V23.0909H53.288ZM54.9357 13.5455C54.9357 14.3693 55.0565 15.0961 55.2979 15.7259C55.5394 16.3509 55.8922 16.8409 56.3562 17.196C56.8202 17.5464 57.3884 17.7216 58.0607 17.7216C58.7615 17.7216 59.3462 17.5369 59.815 17.1676C60.2885 16.7936 60.6436 16.2917 60.8803 15.6619C61.1218 15.0275 61.2425 14.322 61.2425 13.5455C61.2425 12.7784 61.1242 12.0871 60.8874 11.4716C60.6554 10.8513 60.3027 10.3613 59.8292 10.0014C59.3604 9.63684 58.771 9.45455 58.0607 9.45455C57.3789 9.45455 56.806 9.62737 56.342 9.97301C55.878 10.3139 55.5276 10.7921 55.2908 11.4077C55.0541 12.0185 54.9357 12.7311 54.9357 13.5455ZM65.4755 19V8.09091H67.1516V19H65.4755ZM66.3278 6.27273C66.0011 6.27273 65.7193 6.16146 65.4826 5.93892C65.2506 5.71638 65.1346 5.44886 65.1346 5.13636C65.1346 4.82386 65.2506 4.55634 65.4826 4.33381C65.7193 4.11127 66.0011 4 66.3278 4C66.6545 4 66.9338 4.11127 67.1658 4.33381C67.4026 4.55634 67.521 4.82386 67.521 5.13636C67.521 5.44886 67.4026 5.71638 67.1658 5.93892C66.9338 6.16146 66.6545 6.27273 66.3278 6.27273ZM70.2216 19V8.09091H71.8409V9.73864H71.9545C72.1534 9.19886 72.5133 8.76089 73.0341 8.42472C73.5549 8.08854 74.142 7.92045 74.7955 7.92045C74.9186 7.92045 75.0724 7.92282 75.2571 7.92756C75.4418 7.93229 75.5814 7.93939 75.6761 7.94886V9.65341C75.6193 9.6392 75.4891 9.6179 75.2855 9.58949C75.0866 9.55634 74.8759 9.53977 74.6534 9.53977C74.1231 9.53977 73.6496 9.65104 73.233 9.87358C72.821 10.0914 72.4943 10.3944 72.2528 10.7827C72.0161 11.1662 71.8977 11.6042 71.8977 12.0966V19H70.2216ZM77.663 19V8.09091H79.3391V19H77.663ZM78.5153 6.27273C78.1886 6.27273 77.9068 6.16146 77.6701 5.93892C77.4381 5.71638 77.3221 5.44886 77.3221 5.13636C77.3221 4.82386 77.4381 4.55634 77.6701 4.33381C77.9068 4.11127 78.1886 4 78.5153 4C78.842 4 79.1213 4.11127 79.3533 4.33381C79.5901 4.55634 79.7085 4.82386 79.7085 5.13636C79.7085 5.44886 79.5901 5.71638 79.3533 5.93892C79.1213 6.16146 78.842 6.27273 78.5153 6.27273ZM86.8409 19.2273C85.8561 19.2273 84.992 18.9929 84.2486 18.5241C83.5099 18.0554 82.9323 17.3996 82.5156 16.5568C82.1037 15.714 81.8977 14.7292 81.8977 13.6023C81.8977 12.4659 82.1037 11.474 82.5156 10.6264C82.9323 9.77888 83.5099 9.12074 84.2486 8.65199C84.992 8.18324 85.8561 7.94886 86.8409 7.94886C87.8258 7.94886 88.6875 8.18324 89.4261 8.65199C90.1695 9.12074 90.7472 9.77888 91.1591 10.6264C91.5758 11.474 91.7841 12.4659 91.7841 13.6023C91.7841 14.7292 91.5758 15.714 91.1591 16.5568C90.7472 17.3996 90.1695 18.0554 89.4261 18.5241C88.6875 18.9929 87.8258 19.2273 86.8409 19.2273ZM86.8409 17.7216C87.589 17.7216 88.2045 17.5298 88.6875 17.1463C89.1705 16.7628 89.5279 16.2585 89.7599 15.6335C89.992 15.0085 90.108 14.3314 90.108 13.6023C90.108 12.8731 89.992 12.1937 89.7599 11.5639C89.5279 10.9342 89.1705 10.4252 88.6875 10.0369C88.2045 9.64867 87.589 9.45455 86.8409 9.45455C86.0928 9.45455 85.4773 9.64867 84.9943 10.0369C84.5114 10.4252 84.1539 10.9342 83.9219 11.5639C83.6899 12.1937 83.5739 12.8731 83.5739 13.6023C83.5739 14.3314 83.6899 15.0085 83.9219 15.6335C84.1539 16.2585 84.5114 16.7628 84.9943 17.1463C85.4773 17.5298 86.0928 17.7216 86.8409 17.7216Z" fill="#4D35D3"/>
</svg>
