<svg width="26" height="28" viewBox="0 0 26 28" fill="none" xmlns="http://www.w3.org/2000/svg">
<path d="M17.1256 21.2308C19.8157 20.917 22.4587 20.2916 25 19.3674C22.8479 17.0187 21.6587 13.9657 21.6634 10.8015V9.73462C21.6634 7.47109 20.7507 5.30026 19.1262 3.6997C17.5016 2.09914 15.2982 1.19995 13.0007 1.19995C10.7032 1.19995 8.49984 2.09914 6.87527 3.6997C5.2507 5.30026 4.33803 7.47109 4.33803 9.73462V10.8015C4.34238 13.9659 3.15266 17.0189 1 19.3674C3.50208 20.2778 6.13987 20.9108 8.87583 21.2308M17.1256 21.2308C14.3853 21.5511 11.6162 21.5511 8.87583 21.2308M17.1256 21.2308C17.3337 21.8707 17.3854 22.55 17.2766 23.2133C17.1678 23.8766 16.9016 24.5053 16.4996 25.0481C16.0975 25.5908 15.5711 26.0324 14.9631 26.3368C14.3551 26.6413 13.6827 26.8 13.0007 26.8C12.3187 26.8 11.6463 26.6413 11.0383 26.3368C10.4303 26.0324 9.90391 25.5908 9.50189 25.0481C9.09987 24.5053 8.83362 23.8766 8.72483 23.2133C8.61604 22.55 8.66778 21.8707 8.87583 21.2308" stroke="#4D35D3" stroke-width="1.5" stroke-linecap="round" stroke-linejoin="round"/>
</svg>
